<svg width="25" height="24" viewBox="0 0 25 24" fill="none" xmlns="http://www.w3.org/2000/svg">
<path d="M14.75 17.5V5.5C14.75 5.22386 14.5261 5 14.25 5H3.25C2.97386 5 2.75 5.22386 2.75 5.5V17.5C2.75 17.7761 2.97386 18 3.25 18H4.75M14.75 17.5C14.75 17.7761 14.5261 18 14.25 18H8.75M14.75 17.5V8.5C14.75 8.22386 14.9739 8 15.25 8H18.5429C18.6755 8 18.8027 8.05268 18.8964 8.14645L22.6036 11.8536C22.6973 11.9473 22.75 12.0745 22.75 12.2071V17.5C22.75 17.7761 22.5261 18 22.25 18H20.75M14.75 17.5C14.75 17.7761 14.9739 18 15.25 18H16.75M4.75 18C4.75 19.1046 5.64543 20 6.75 20C7.85457 20 8.75 19.1046 8.75 18M4.75 18C4.75 16.8954 5.64543 16 6.75 16C7.85457 16 8.75 16.8954 8.75 18M16.75 18C16.75 19.1046 17.6454 20 18.75 20C19.8546 20 20.75 19.1046 20.75 18M16.75 18C16.75 16.8954 17.6454 16 18.75 16C19.8546 16 20.75 16.8954 20.75 18" stroke="white" stroke-width="2"/>
</svg>
