<svg width="23" height="24" viewBox="0 0 23 24" fill="none" xmlns="http://www.w3.org/2000/svg">
<path d="M5.75 3V2H4.75V3H5.75ZM6.79651 20.782L6.32706 21.665L6.32706 21.665L6.79651 20.782ZM5.9589 19.908L5.06031 20.3468H5.06031L5.9589 19.908ZM16.2035 3.21799L16.6729 2.33503V2.33503L16.2035 3.21799ZM17.0411 4.09202L16.1425 4.5308V4.5308L17.0411 4.09202ZM6.75 19C6.75 18.4477 6.30228 18 5.75 18C5.19771 18 4.75 18.4477 4.75 19H6.75ZM5.75 7C6.30228 7 6.75 6.55229 6.75 6C6.75 5.44772 6.30229 5 5.75 5L5.75 7ZM3.35417 6L3.35417 5L3.35417 6ZM2.875 5.5H1.875H2.875ZM2.875 5H3.875H2.875ZM7.66666 4C8.21895 4 8.66666 3.55228 8.66666 3C8.66666 2.44772 8.21895 2 7.66666 2L7.66666 4ZM4.79167 3L4.79167 4H4.79167L4.79167 3ZM17.25 6.2H16.25V18H17.25H18.25V6.2H17.25ZM5.75 17.8H6.75V3H5.75H4.75V17.8H5.75ZM8.625 21V20C8.06517 20 7.77137 19.9988 7.56176 19.9777C7.39872 19.9614 7.33917 19.938 7.26596 19.8991L6.79651 20.782L6.32706 21.665C7.00554 22.0257 7.64291 22 8.625 22V21ZM5.75 17.8H4.75C4.75 18.3442 4.74928 18.8101 4.77916 19.1917C4.80986 19.5837 4.87741 19.9722 5.06031 20.3468L5.9589 19.908L6.8575 19.4692C6.83148 19.4159 6.79458 19.3105 6.77306 19.0355C6.75071 18.7501 6.75 18.3759 6.75 17.8H5.75ZM6.79651 20.782L7.26597 19.8991C7.09665 19.809 6.95117 19.661 6.85749 19.4692L5.9589 19.908L5.06031 20.3468C5.33415 20.9076 5.7751 21.3715 6.32706 21.665L6.79651 20.782ZM14.1833 3V4C14.7373 4 15.09 4.00085 15.3572 4.02364C15.6115 4.04532 15.6972 4.08135 15.734 4.10095L16.2035 3.21799L16.6729 2.33503C16.2998 2.13664 15.9121 2.06368 15.5271 2.03086C15.1552 1.99916 14.7028 2 14.1833 2V3ZM17.25 6.2H18.25C18.25 5.65577 18.2507 5.18995 18.2208 4.80835C18.1901 4.41626 18.1226 4.02779 17.9397 3.65324L17.0411 4.09202L16.1425 4.5308C16.1685 4.58407 16.2054 4.68954 16.2269 4.96447C16.2493 5.24987 16.25 5.62413 16.25 6.2H17.25ZM16.2035 3.21799L15.734 4.10095C15.9033 4.19097 16.0488 4.33896 16.1425 4.5308L17.0411 4.09202L17.9397 3.65324C17.6658 3.09243 17.2249 2.6285 16.6729 2.33503L16.2035 3.21799ZM14.1833 3V2H5.75V3V4H14.1833V3ZM7.66666 21V22H8.625V21V20H7.66666V21ZM8.625 21H9.625V18.5H8.625H7.625V21H8.625ZM9.10416 18V19H19.6458V18V17H9.10416V18ZM20.125 18.5H19.125V19H20.125H21.125V18.5H20.125ZM18.2083 21V20H8.625V21V22H18.2083V21ZM20.125 19H19.125C19.125 19.5928 18.6749 20 18.2083 20V21V22C19.8588 22 21.125 20.6163 21.125 19H20.125ZM19.6458 18V19C19.3185 19 19.125 18.7356 19.125 18.5H20.125H21.125C21.125 17.7121 20.5024 17 19.6458 17V18ZM8.625 18.5H9.625C9.625 18.7356 9.4315 19 9.10416 19V18V17C8.24756 17 7.625 17.7121 7.625 18.5H8.625ZM5.75 19H4.75C4.75 20.6163 6.01615 22 7.66666 22V21V20C7.20009 20 6.75 19.5928 6.75 19H5.75ZM5.75 6V5L3.35417 5L3.35417 6L3.35417 7H5.75L5.75 6ZM2.875 5.5H3.875V5H2.875L1.875 5L1.875 5.5H2.875ZM7.66666 3V2L4.79167 2L4.79167 3L4.79167 4L7.66666 4L7.66666 3ZM2.875 5H3.875C3.875 4.40718 4.32509 4 4.79167 4L4.79167 3L4.79167 2C3.14115 2 1.875 3.38368 1.875 5L2.875 5ZM3.35417 6L3.35417 5C3.6815 5 3.875 5.2644 3.875 5.5H2.875H1.875C1.875 6.28789 2.49756 7 3.35417 7L3.35417 6Z" fill="#757575"/>
</svg>
