<svg width="746" height="185" viewBox="0 0 746 185" fill="none" xmlns="http://www.w3.org/2000/svg">
<g clip-path="url(#clip0_8_2505)">
<path opacity="0.24" d="M-31.5288 170.826V185H759.855V28C759.855 28 731.004 44.0488 710.393 49.8056C691.738 55.0162 680.52 57.0741 660.932 57.0741C641.344 57.0741 630.676 46.4443 611.47 49.8056C587.514 53.9983 586.113 79.752 562.009 83.2407C542.431 86.0743 532.279 71.2082 512.547 73.0648C490.883 75.1034 484.081 90.5106 463.086 95.5972C444.408 100.122 432.389 94.9878 413.625 99.2315C392.952 103.907 385.513 119.158 364.163 119.583C343.335 119.999 335.457 100.563 314.702 102.139C290.751 103.957 288.755 129.758 265.24 134.12C246.176 137.657 235.177 126.659 215.779 128.306C195.387 130.037 185.76 137.931 166.317 143.569C147.118 149.137 116.856 157.016 116.856 157.016C116.856 157.016 86.5387 155.135 67.3941 157.38C47.5675 159.704 17.9327 169.009 17.9327 169.009L-31.5288 170.826Z" fill="url(#paint0_linear_8_2505)"/>
<g opacity="0.75" filter="url(#filter0_d_8_2505)">
<path d="M759.855 28C759.855 28 730.986 44.0477 710.361 49.8041C691.693 55.0144 680.468 57.0722 660.867 57.0722C641.266 57.0722 630.591 46.4431 611.373 49.8041C587.401 53.9966 585.999 79.7486 561.879 83.2371C542.288 86.0705 532.129 71.2053 512.385 73.0619C490.707 75.1003 483.901 90.5065 462.891 95.5928C444.201 100.118 432.174 94.9834 413.397 99.2268C392.711 103.902 385.267 119.152 363.903 119.577C343.061 119.993 335.179 100.559 314.409 102.134C290.443 103.952 288.446 129.752 264.916 134.113C245.839 137.65 234.833 126.652 215.422 128.299C195.016 130.03 165.928 143.562 165.928 143.562C165.928 143.562 136.446 154.338 116.434 157.008C97.3267 159.556 86.0969 155.127 66.9398 157.371C47.1001 159.696 17.4458 169 17.4458 169" stroke="#0B677E" stroke-width="2" stroke-linecap="round" stroke-linejoin="round"/>
</g>
</g>
<defs>
<filter id="filter0_d_8_2505" x="0.445312" y="18.9999" width="776.41" height="175" filterUnits="userSpaceOnUse" color-interpolation-filters="sRGB">
<feFlood flood-opacity="0" result="BackgroundImageFix"/>
<feColorMatrix in="SourceAlpha" type="matrix" values="0 0 0 0 0 0 0 0 0 0 0 0 0 0 0 0 0 0 127 0" result="hardAlpha"/>
<feOffset dy="8"/>
<feGaussianBlur stdDeviation="8"/>
<feColorMatrix type="matrix" values="0 0 0 0 0.317647 0 0 0 0 0.643137 0 0 0 0 0.964706 0 0 0 0.48 0"/>
<feBlend mode="normal" in2="BackgroundImageFix" result="effect1_dropShadow_8_2505"/>
<feBlend mode="normal" in="SourceGraphic" in2="effect1_dropShadow_8_2505" result="shape"/>
</filter>
<linearGradient id="paint0_linear_8_2505" x1="375.546" y1="47.7558" x2="371.881" y2="185.206" gradientUnits="userSpaceOnUse">
<stop offset="0.0172351" stop-color="#0B677E"/>
<stop offset="1" stop-color="white" stop-opacity="0.5"/>
</linearGradient>
<clipPath id="clip0_8_2505">
<rect width="745" height="185" fill="white" transform="translate(0.75)"/>
</clipPath>
</defs>
</svg>
