<svg width="25" height="24" viewBox="0 0 25 24" fill="none" xmlns="http://www.w3.org/2000/svg">
<path d="M3.4095 13.1718C3.06793 12.4286 3.06793 11.5714 3.4095 10.8282C4.9906 7.38843 8.46659 5 12.5004 5C16.5343 5 20.0102 7.38843 21.5913 10.8282C21.9329 11.5714 21.9329 12.4286 21.5913 13.1718C20.0102 16.6116 16.5343 19 12.5004 19C8.46659 19 4.9906 16.6116 3.4095 13.1718Z" stroke="#45F751" stroke-width="2"/>
<path d="M15.5004 12C15.5004 13.6569 14.1573 15 12.5004 15C10.8436 15 9.50042 13.6569 9.50042 12C9.50042 10.3431 10.8436 9 12.5004 9C14.1573 9 15.5004 10.3431 15.5004 12Z" stroke="#45F751" stroke-width="2"/>
</svg>
