<svg width="24" height="24" viewBox="0 0 24 24" fill="none" xmlns="http://www.w3.org/2000/svg">
<path d="M12 3C10.8954 3 10 3.89543 10 5V9.5C10 9.77614 9.77614 10 9.5 10H5C3.89543 10 3 10.8954 3 12C3 13.1046 3.89543 14 5 14L9.5 14C9.77614 14 10 14.2239 10 14.5V19C10 20.1046 10.8954 21 12 21C13.1046 21 14 20.1046 14 19V14.5C14 14.2239 14.2239 14 14.5 14H19C20.1046 14 21 13.1046 21 12C21 10.8954 20.1046 10 19 10H14.5C14.2239 10 14 9.77614 14 9.5V5C14 3.89543 13.1046 3 12 3Z" stroke="#757575" stroke-width="2"/>
</svg>
