<svg width="24" height="24" viewBox="0 0 24 24" fill="none" xmlns="http://www.w3.org/2000/svg">
<path d="M16.8 22V21V22ZM7.2 22V23V22ZM4 18.8H3H4ZM4 5.2H5H4ZM4.21799 3.09202L3.32698 2.63803L3.32698 2.63803L4.21799 3.09202ZM7.2 2V3V2ZM5.09202 2.21799L4.63803 1.32698L4.63803 1.32698L5.09202 2.21799ZM5.09202 21.782L4.63803 22.673H4.63803L5.09202 21.782ZM4.21799 20.908L5.10899 20.454H5.10899L4.21799 20.908ZM18.908 21.782L18.454 20.891H18.454L18.908 21.782ZM20 18.8H21H20ZM19.782 20.908L18.891 20.454L19.782 20.908ZM21 8C21 7.44772 20.5523 7 20 7C19.4477 7 19 7.44772 19 8H21ZM14 3C14.5523 3 15 2.55229 15 2C15 1.44772 14.5523 1 14 1V3ZM19.8293 7.82929L20.5364 7.12218L19.8293 7.82929ZM14.1707 2.17071L13.4636 2.87782V2.87782L14.1707 2.17071ZM19.7586 8V9V8ZM15 8V7V8ZM14 7H15H14ZM14 2.24142L13 2.24142V2.24142H14ZM8 11C7.44772 11 7 11.4477 7 12C7 12.5523 7.44772 13 8 13V11ZM16 13C16.5523 13 17 12.5523 17 12C17 11.4477 16.5523 11 16 11V13ZM8 7C7.44772 7 7 7.44772 7 8C7 8.55229 7.44772 9 8 9V7ZM10 9C10.5523 9 11 8.55229 11 8C11 7.44772 10.5523 7 10 7V9ZM8 15C7.44772 15 7 15.4477 7 16C7 16.5523 7.44772 17 8 17V15ZM16 17C16.5523 17 17 16.5523 17 16C17 15.4477 16.5523 15 16 15V17ZM16.8 22V21H7.2V22V23H16.8V22ZM4 18.8H5L5 5.2H4H3L3 18.8H4ZM4 5.2H5C5 4.62345 5.00078 4.25117 5.02393 3.96784C5.04612 3.69617 5.0838 3.59545 5.109 3.54601L4.21799 3.09202L3.32698 2.63803C3.13419 3.01641 3.06287 3.40963 3.03057 3.80497C2.99922 4.18864 3 4.65645 3 5.2H4ZM7.2 2V1C6.65645 1 6.18864 0.999222 5.80497 1.03057C5.40963 1.06287 5.01641 1.13419 4.63803 1.32698L5.09202 2.21799L5.54601 3.10899C5.59545 3.0838 5.69617 3.04612 5.96784 3.02393C6.25117 3.00078 6.62345 3 7.2 3V2ZM4.21799 3.09202L5.10899 3.54601C5.20487 3.35785 5.35785 3.20487 5.54601 3.10899L5.09202 2.21799L4.63803 1.32698C4.07355 1.6146 3.6146 2.07354 3.32698 2.63803L4.21799 3.09202ZM7.2 22V21C6.62345 21 6.25117 20.9992 5.96784 20.9761C5.69617 20.9539 5.59545 20.9162 5.54601 20.891L5.09202 21.782L4.63803 22.673C5.01641 22.8658 5.40963 22.9371 5.80497 22.9694C6.18864 23.0008 6.65645 23 7.2 23V22ZM4 18.8H3C3 19.3436 2.99922 19.8114 3.03057 20.195C3.06287 20.5904 3.13419 20.9836 3.32698 21.362L4.21799 20.908L5.10899 20.454C5.0838 20.4045 5.04612 20.3038 5.02393 20.0322C5.00078 19.7488 5 19.3766 5 18.8H4ZM5.09202 21.782L5.54601 20.891C5.35785 20.7951 5.20487 20.6422 5.10899 20.454L4.21799 20.908L3.32698 21.362C3.6146 21.9265 4.07354 22.3854 4.63803 22.673L5.09202 21.782ZM16.8 22V23C17.3435 23 17.8114 23.0008 18.195 22.9694C18.5904 22.9371 18.9836 22.8658 19.362 22.673L18.908 21.782L18.454 20.891C18.4045 20.9162 18.3038 20.9539 18.0322 20.9761C17.7488 20.9992 17.3766 21 16.8 21V22ZM20 18.8H19C19 19.3766 18.9992 19.7488 18.9761 20.0322C18.9539 20.3038 18.9162 20.4045 18.891 20.454L19.782 20.908L20.673 21.362C20.8658 20.9836 20.9371 20.5904 20.9694 20.195C21.0008 19.8114 21 19.3436 21 18.8H20ZM18.908 21.782L19.362 22.673C19.9265 22.3854 20.3854 21.9265 20.673 21.362L19.782 20.908L18.891 20.454C18.7951 20.6422 18.6422 20.7951 18.454 20.891L18.908 21.782ZM20 8H19V18.8H20H21V8H20ZM7.2 2V3L14 3V2V1L7.2 1V2ZM19.8293 7.82929L20.5364 7.12218L14.8778 1.46361L14.1707 2.17071L13.4636 2.87782L19.1222 8.5364L19.8293 7.82929ZM19.7586 8V7L15 7V8V9L19.7586 9V8ZM14 7H15V2.24142H14H13V7H14ZM15 8V7H14H13C13 8.10457 13.8954 9 15 9V8ZM14.1707 2.17071L14.8778 1.46361C14.1849 0.770644 13 1.26143 13 2.24142L14 2.24142L15 2.24142C15 3.04324 14.0306 3.44479 13.4636 2.87782L14.1707 2.17071ZM19.8293 7.82929L19.1222 8.5364C18.5552 7.96942 18.9568 7 19.7586 7V8V9C20.7386 9 21.2294 7.81515 20.5364 7.12218L19.8293 7.82929ZM8 12V13H16V12V11H8V12ZM8 8V9H10V8V7H8V8ZM8 16V17H16V16V15H8V16Z" fill="#757575"/>
</svg>
