<svg width="25" height="24" viewBox="0 0 25 24" fill="none" xmlns="http://www.w3.org/2000/svg">
<path d="M18.66 5.59002C17.8733 4.80333 16.5978 4.80333 15.8111 5.59002L12.6061 8.79501C12.4094 8.99169 12.0906 8.99169 11.8939 8.79501L8.6889 5.59002C7.90221 4.80333 6.62672 4.80333 5.84002 5.59002C5.05333 6.37672 5.05333 7.6522 5.84002 8.4389L9.04501 11.6439C9.24169 11.8406 9.24169 12.1594 9.04501 12.3561L5.84002 15.5611C5.05333 16.3478 5.05333 17.6233 5.84002 18.41C6.62672 19.1967 7.9022 19.1967 8.6889 18.41L11.8939 15.205C12.0906 15.0083 12.4094 15.0083 12.6061 15.205L15.8111 18.41C16.5978 19.1967 17.8733 19.1967 18.66 18.41C19.4467 17.6233 19.4467 16.3478 18.66 15.5611L15.455 12.3561C15.2583 12.1594 15.2583 11.8406 15.455 11.6439L18.66 8.4389C19.4467 7.65221 19.4467 6.37672 18.66 5.59002Z" stroke="white" stroke-width="2"/>
</svg>
